<?xml version="1.0" encoding="utf-8"?>
<!-- Generator: Adobe Illustrator 27.3.1, SVG Export Plug-In . SVG Version: 6.00 Build 0)  -->
<svg version="1.1" id="Livello_1" xmlns="http://www.w3.org/2000/svg" xmlns:xlink="http://www.w3.org/1999/xlink" x="0px" y="0px"
	 viewBox="0 0 178 56" style="enable-background:new 0 0 178 56;" xml:space="preserve">
<style type="text/css">
	.st0{fill:#164194;stroke:#FFFFFF;}
	.st1{fill:#FFCC00;}
</style>
<path d="M69.5,12.8V5.1h4.9v1.4H71v2.3h2.7v1.4H71v2.7H69.5z M75.3,12.8V7.2h1.5v5.7H75.3z M75.3,6.5V4.9h1.5v1.5H75.3z M79.8,12.8
	h-1.5V7.2h1.5v0.3c0.5-0.3,1-0.5,1.4-0.5c0.8,0,1.3,0.2,1.6,0.7c0.3,0.4,0.4,1.1,0.4,2.1v3.1h-1.5v-3c0-0.5-0.1-0.8-0.2-1.1
	c-0.1-0.2-0.3-0.4-0.7-0.4c-0.3,0-0.6,0.1-0.9,0.2l-0.1,0V12.8z M88.9,8.9v2.4c0,0.2,0,0.3,0.1,0.4c0,0.1,0.1,0.1,0.3,0.1l0,1.1
	c-0.4,0-0.7,0-0.9-0.1c-0.2-0.1-0.5-0.2-0.7-0.3C87,12.8,86.5,13,85.9,13c-1.2,0-1.8-0.6-1.8-1.9c0-0.6,0.2-1,0.5-1.3
	c0.3-0.3,0.8-0.4,1.5-0.5l1.2-0.1V8.9c0-0.2-0.1-0.4-0.2-0.5c-0.1-0.1-0.3-0.1-0.5-0.1l-2.1,0.1l0-1.1C85.3,7.2,86.1,7,86.8,7
	c0.7,0,1.3,0.2,1.6,0.5C88.7,7.8,88.9,8.3,88.9,8.9z M86.3,10.4c-0.4,0-0.6,0.3-0.6,0.7c0,0.4,0.2,0.6,0.6,0.6c0.3,0,0.6,0,0.9-0.1
	l0.2,0v-1.2L86.3,10.4z M91.8,12.8h-1.5V7.2h1.5v0.3c0.5-0.3,1-0.5,1.4-0.5c0.8,0,1.3,0.2,1.6,0.7c0.3,0.4,0.4,1.1,0.4,2.1v3.1h-1.5
	v-3c0-0.5-0.1-0.8-0.2-1.1c-0.1-0.2-0.3-0.4-0.7-0.4c-0.3,0-0.6,0.1-0.9,0.2l-0.1,0V12.8z M96.3,8.5V7.2h4.2v1.4l-2.4,2.9h2.4v1.4
	h-4.2v-1.4l2.4-2.9H96.3z M101.7,12.8V7.2h1.5v5.7H101.7z M101.7,6.5V4.9h1.5v1.5H101.7z M109,8.9v2.4c0,0.2,0,0.3,0.1,0.4
	c0,0.1,0.1,0.1,0.3,0.1l0,1.1c-0.4,0-0.7,0-0.9-0.1c-0.2-0.1-0.5-0.2-0.7-0.3c-0.5,0.3-1.1,0.4-1.7,0.4c-1.2,0-1.8-0.6-1.8-1.9
	c0-0.6,0.2-1,0.5-1.3c0.3-0.3,0.8-0.4,1.5-0.5l1.2-0.1V8.9c0-0.2-0.1-0.4-0.2-0.5c-0.1-0.1-0.3-0.1-0.5-0.1l-2.1,0.1l0-1.1
	c0.8-0.2,1.6-0.3,2.3-0.3c0.7,0,1.3,0.2,1.6,0.5C108.8,7.8,109,8.3,109,8.9z M106.4,10.4c-0.4,0-0.6,0.3-0.6,0.7
	c0,0.4,0.2,0.6,0.6,0.6c0.3,0,0.6,0,0.9-0.1l0.2,0v-1.2L106.4,10.4z M113.6,8.5h-1.4v2.3c0,0.2,0,0.4,0,0.5c0,0.1,0.1,0.2,0.1,0.2
	c0.1,0.1,0.2,0.1,0.3,0.1l0.9,0l0.1,1.2c-0.5,0.1-0.9,0.2-1.2,0.2c-0.7,0-1.1-0.2-1.4-0.5c-0.2-0.3-0.4-0.9-0.4-1.7V8.5H110V7.2h0.7
	V5.6h1.5v1.6h1.4V8.5z M114.8,7.8c0.4-0.5,1.1-0.8,2-0.8c0.9,0,1.6,0.3,2,0.8c0.4,0.5,0.6,1.2,0.6,2.2c0,2-0.9,3-2.6,3
	c-1.7,0-2.6-1-2.6-3C114.2,9.1,114.4,8.3,114.8,7.8z M116,11.3c0.2,0.3,0.4,0.4,0.8,0.4c0.4,0,0.7-0.1,0.8-0.4
	c0.2-0.3,0.2-0.7,0.2-1.3c0-0.6-0.1-1-0.2-1.3c-0.2-0.3-0.4-0.4-0.8-0.4c-0.4,0-0.7,0.1-0.8,0.4c-0.2,0.3-0.2,0.7-0.2,1.3
	C115.8,10.6,115.9,11,116,11.3z M74.1,20.9v7.9h-1.5v-0.2c-0.5,0.2-1,0.4-1.4,0.4c-0.8,0-1.4-0.2-1.7-0.7C69.2,27.8,69,27,69,26
	c0-1,0.2-1.8,0.6-2.3c0.4-0.5,1-0.7,1.8-0.7c0.2,0,0.6,0,1,0.1l0.2,0v-2.3H74.1z M72.5,27.5l0.2,0v-3c-0.4-0.1-0.8-0.1-1.1-0.1
	c-0.6,0-0.9,0.5-0.9,1.6c0,0.6,0.1,1,0.2,1.3c0.1,0.2,0.4,0.4,0.7,0.4C71.8,27.6,72.1,27.6,72.5,27.5z M79.9,24.9v2.4
	c0,0.2,0,0.3,0.1,0.4c0,0.1,0.1,0.1,0.3,0.1l0,1.1c-0.4,0-0.7,0-0.9-0.1c-0.2-0.1-0.5-0.2-0.7-0.3C78,28.8,77.5,29,76.9,29
	c-1.2,0-1.8-0.6-1.8-1.9c0-0.6,0.2-1,0.5-1.3c0.3-0.3,0.8-0.4,1.5-0.5l1.2-0.1v-0.4c0-0.2-0.1-0.4-0.2-0.5c-0.1-0.1-0.3-0.1-0.5-0.1
	l-2.1,0.1l0-1.1c0.8-0.2,1.6-0.3,2.3-0.3c0.7,0,1.3,0.2,1.6,0.5C79.7,23.8,79.9,24.3,79.9,24.9z M77.3,26.4c-0.4,0-0.6,0.3-0.6,0.7
	c0,0.4,0.2,0.6,0.6,0.6c0.3,0,0.6,0,0.9-0.1l0.2,0v-1.2L77.3,26.4z M81.4,28.8v-7.9h1.5v7.9H81.4z M84.4,28.8v-7.9H86v7.9H84.4z
	 M87.2,23.9l0.5-2.8h1.6l-1,2.8H87.2z M91.9,26.3c0,0.9,0.5,1.3,1.4,1.3c0.9,0,1.4-0.4,1.4-1.3v-5.1h1.6v5.1c0,0.9-0.2,1.6-0.7,2.1
	C95,28.8,94.3,29,93.3,29c-1,0-1.7-0.2-2.2-0.7c-0.5-0.4-0.7-1.1-0.7-2.1v-5.1h1.6V26.3z M99.2,28.8h-1.5v-5.7h1.5v0.3
	c0.5-0.3,1-0.5,1.4-0.5c0.8,0,1.3,0.2,1.6,0.7c0.3,0.4,0.4,1.1,0.4,2.1v3.1h-1.5v-3c0-0.5-0.1-0.8-0.2-1.1c-0.1-0.2-0.3-0.4-0.7-0.4
	c-0.3,0-0.6,0.1-0.9,0.2l-0.1,0V28.8z M103.9,28.8v-5.7h1.5v5.7H103.9z M103.9,22.5v-1.5h1.5v1.5H103.9z M107.1,23.8
	c0.4-0.5,1.1-0.8,2-0.8c0.9,0,1.6,0.3,2,0.8c0.4,0.5,0.6,1.2,0.6,2.2c0,2-0.9,3-2.6,3s-2.6-1-2.6-3
	C106.5,25.1,106.7,24.3,107.1,23.8z M108.3,27.3c0.2,0.3,0.4,0.4,0.8,0.4c0.4,0,0.7-0.1,0.8-0.4c0.2-0.3,0.2-0.7,0.2-1.3
	c0-0.6-0.1-1-0.2-1.3c-0.2-0.3-0.4-0.4-0.8-0.4c-0.4,0-0.7,0.1-0.8,0.4c-0.2,0.3-0.2,0.7-0.2,1.3C108.1,26.6,108.2,27,108.3,27.3z
	 M114.4,28.8h-1.5v-5.7h1.5v0.3c0.5-0.3,1-0.5,1.4-0.5c0.8,0,1.3,0.2,1.6,0.7c0.3,0.4,0.4,1.1,0.4,2.1v3.1h-1.5v-3
	c0-0.5-0.1-0.8-0.2-1.1c-0.1-0.2-0.3-0.4-0.7-0.4c-0.3,0-0.6,0.1-0.9,0.2l-0.1,0V28.8z M120.4,26.7c0,0.3,0.1,0.6,0.3,0.8
	c0.2,0.2,0.4,0.2,0.8,0.2c0.7,0,1.3,0,1.9-0.1l0.3,0l0,1.1c-0.9,0.2-1.7,0.3-2.4,0.3c-0.9,0-1.5-0.2-1.9-0.7
	c-0.4-0.5-0.6-1.2-0.6-2.2c0-2,0.8-3,2.5-3c1.6,0,2.5,0.9,2.5,2.6l-0.1,1.1H120.4z M122.3,25.5c0-0.5-0.1-0.8-0.2-0.9
	c-0.1-0.2-0.4-0.3-0.8-0.3c-0.4,0-0.6,0.1-0.8,0.3c-0.1,0.2-0.2,0.5-0.2,0.9H122.3z M128.6,26.7c0,0.3,0.1,0.6,0.3,0.8
	c0.2,0.2,0.4,0.2,0.8,0.2c0.7,0,1.3,0,1.9-0.1l0.3,0l0,1.1c-0.9,0.2-1.7,0.3-2.4,0.3c-0.9,0-1.5-0.2-1.9-0.7
	c-0.4-0.5-0.6-1.2-0.6-2.2c0-2,0.8-3,2.5-3c1.6,0,2.5,0.9,2.5,2.6l-0.1,1.1H128.6z M130.6,25.5c0-0.5-0.1-0.8-0.2-0.9
	c-0.1-0.2-0.4-0.3-0.8-0.3c-0.4,0-0.6,0.1-0.8,0.3c-0.1,0.2-0.2,0.5-0.2,0.9H130.6z M136.5,23.2h1.5v5.7h-1.5v-0.3
	c-0.5,0.3-1,0.5-1.4,0.5c-0.8,0-1.3-0.2-1.6-0.6c-0.3-0.4-0.4-1.2-0.4-2.2v-3h1.5v3c0,0.6,0,0.9,0.1,1.1c0.1,0.2,0.3,0.3,0.7,0.3
	c0.3,0,0.6-0.1,0.9-0.2l0.1,0V23.2z M139.4,28.8v-5.7h1.5v0.6c0.6-0.4,1.2-0.6,1.8-0.7v1.5c-0.6,0.1-1.1,0.3-1.6,0.4L141,25v3.8
	H139.4z M144,23.8c0.4-0.5,1.1-0.8,2-0.8c0.9,0,1.6,0.3,2,0.8c0.4,0.5,0.6,1.2,0.6,2.2c0,2-0.9,3-2.6,3c-1.7,0-2.6-1-2.6-3
	C143.4,25.1,143.6,24.3,144,23.8z M145.1,27.3c0.2,0.3,0.4,0.4,0.8,0.4c0.4,0,0.7-0.1,0.8-0.4c0.2-0.3,0.2-0.7,0.2-1.3
	c0-0.6-0.1-1-0.2-1.3c-0.2-0.3-0.4-0.4-0.8-0.4c-0.4,0-0.7,0.1-0.8,0.4c-0.2,0.3-0.2,0.7-0.2,1.3C144.9,26.6,145,27,145.1,27.3z
	 M149.7,31.2v-8h1.5v0.3c0.5-0.3,0.9-0.4,1.3-0.4c0.8,0,1.3,0.2,1.7,0.7c0.4,0.5,0.5,1.2,0.5,2.3s-0.2,1.9-0.6,2.3
	c-0.4,0.4-1.1,0.6-2,0.6c-0.2,0-0.5,0-0.8-0.1l-0.1,0v2.3H149.7z M152.2,24.4c-0.3,0-0.6,0.1-0.8,0.2l-0.1,0.1v3
	c0.3,0,0.6,0.1,0.8,0.1c0.4,0,0.7-0.1,0.9-0.4c0.2-0.3,0.2-0.7,0.2-1.3C153.2,24.9,152.8,24.4,152.2,24.4z M157.1,26.7
	c0,0.3,0.1,0.6,0.3,0.8c0.2,0.2,0.4,0.2,0.8,0.2c0.7,0,1.3,0,1.9-0.1l0.3,0l0,1.1c-0.9,0.2-1.7,0.3-2.4,0.3c-0.9,0-1.5-0.2-1.9-0.7
	c-0.4-0.5-0.6-1.2-0.6-2.2c0-2,0.8-3,2.5-3c1.6,0,2.5,0.9,2.5,2.6l-0.1,1.1H157.1z M159,25.5c0-0.5-0.1-0.8-0.2-0.9
	c-0.1-0.2-0.4-0.3-0.8-0.3c-0.4,0-0.6,0.1-0.8,0.3c-0.1,0.2-0.2,0.5-0.2,0.9H159z M166,24.9v2.4c0,0.2,0,0.3,0.1,0.4
	c0,0.1,0.1,0.1,0.3,0.1l0,1.1c-0.4,0-0.7,0-0.9-0.1c-0.2-0.1-0.5-0.2-0.7-0.3c-0.5,0.3-1.1,0.4-1.7,0.4c-1.2,0-1.8-0.6-1.8-1.9
	c0-0.6,0.2-1,0.5-1.3c0.3-0.3,0.8-0.4,1.5-0.5l1.2-0.1v-0.4c0-0.2-0.1-0.4-0.2-0.5c-0.1-0.1-0.3-0.1-0.5-0.1l-2.1,0.1l0-1.1
	c0.8-0.2,1.6-0.3,2.3-0.3c0.7,0,1.3,0.2,1.6,0.5C165.8,23.8,166,24.3,166,24.9z M163.4,26.4c-0.4,0-0.6,0.3-0.6,0.7
	c0,0.4,0.2,0.6,0.6,0.6c0.3,0,0.6,0,0.9-0.1l0.2,0v-1.2L163.4,26.4z"/>
<path class="st0" d="M0.5,43.6V4.8h58v38.8H0.5z"/>
<path class="st1" d="M28.3,12.9l1.2-0.9l1.2,0.9l-0.5-1.5l1.3-0.9H30L29.5,9L29,10.5h-1.6l1.3,0.9L28.3,12.9z"/>
<path class="st1" d="M21.8,14.7l1.2-0.9l1.2,0.9l-0.5-1.5l1.2-0.9h-1.6L23,10.8l-0.5,1.5H21l1.2,0.9L21.8,14.7z"/>
<path class="st1" d="M18.3,15.6l-0.5,1.5h-1.6l1.3,0.9l-0.5,1.5l1.2-0.9l1.2,0.9L19.1,18l1.3-0.9h-1.6L18.3,15.6z"/>
<path class="st1" d="M16.6,25.1l1.2,0.9l-0.5-1.5l1.3-0.9h-1.6l-0.5-1.5l-0.5,1.5h-1.6l1.3,0.9L15.4,26L16.6,25.1z"/>
<path class="st1" d="M18.8,30.1l-0.5-1.5l-0.5,1.5h-1.6l1.3,0.9l-0.5,1.5l1.2-0.9l1.2,0.9L19.1,31l1.3-0.9H18.8z"/>
<path class="st1" d="M23.5,34.9l-0.5-1.5l-0.5,1.5l-1.6,0l1.3,0.9l-0.5,1.5l1.2-0.9l1.2,0.9l-0.5-1.5l1.3-0.9H23.5z"/>
<path class="st1" d="M30,36.6l-0.5-1.5L29,36.6h-1.6l1.3,0.9L28.3,39l1.2-0.9l1.2,0.9l-0.5-1.5l1.3-0.9H30z"/>
<path class="st1" d="M36.4,34.9L36,33.4l-0.5,1.5l-1.6,0l1.2,0.9l-0.5,1.5l1.2-0.9l1.2,0.9l-0.5-1.5l1.2-0.9H36.4z"/>
<path class="st1" d="M41.2,30.1l-0.5-1.5l-0.5,1.5h-1.6l1.3,0.9l-0.5,1.5l1.2-0.9l1.2,0.9L41.5,31l1.2-0.9H41.2z"/>
<path class="st1" d="M44.4,23.6h-1.6l-0.5-1.5l-0.5,1.5h-1.6l1.3,0.9L41.1,26l1.2-0.9l1.2,0.9l-0.5-1.5L44.4,23.6z"/>
<path class="st1" d="M39.4,19.4l1.2-0.9l1.2,0.9L41.5,18l1.2-0.9h-1.5l-0.5-1.5L40.2,17h-1.6l1.3,0.9L39.4,19.4z"/>
<path class="st1" d="M36,10.8l-0.5,1.5h-1.5l1.2,0.9l-0.5,1.5l1.2-0.9l1.2,0.9l-0.5-1.5l1.3-0.9h-1.6L36,10.8z"/>
<path d="M68.6,42v-5.7h1.1l2.3,3.8v-3.8h1.1V42H72l-2.3-3.7V42H68.6z M76.8,40.7l1.1,0.2c-0.1,0.4-0.4,0.7-0.7,0.9
	c-0.3,0.2-0.7,0.3-1.1,0.3c-0.7,0-1.3-0.2-1.6-0.7C74.2,41,74,40.5,74,40c0-0.7,0.2-1.2,0.5-1.6c0.4-0.4,0.8-0.6,1.4-0.6
	c0.6,0,1.1,0.2,1.5,0.6c0.4,0.4,0.5,1,0.5,1.9h-2.8c0,0.3,0.1,0.6,0.3,0.8c0.2,0.2,0.4,0.3,0.6,0.3c0.2,0,0.3,0,0.4-0.1
	C76.6,41,76.7,40.9,76.8,40.7z M76.8,39.6c0-0.3-0.1-0.6-0.2-0.7c-0.2-0.2-0.3-0.2-0.6-0.2c-0.2,0-0.4,0.1-0.6,0.3
	c-0.2,0.2-0.2,0.4-0.2,0.7H76.8z M78.3,42l1.5-2.1l-1.4-2h1.3l0.7,1.1l0.8-1.1h1.3l-1.4,2l1.5,2.2h-1.3l-0.8-1.3L79.6,42H78.3z
	 M85.2,37.9v0.9h-0.8v1.7c0,0.3,0,0.5,0,0.6c0,0.1,0,0.1,0.1,0.1c0.1,0,0.1,0.1,0.2,0.1c0.1,0,0.2,0,0.4-0.1l0.1,0.9
	c-0.3,0.1-0.5,0.2-0.9,0.2c-0.2,0-0.4,0-0.5-0.1c-0.2-0.1-0.3-0.2-0.4-0.3c-0.1-0.1-0.1-0.2-0.2-0.4c0-0.1,0-0.4,0-0.8v-1.8h-0.5
	v-0.9h0.5V37l1.1-0.6v1.5H85.2z M88.6,39.9v-1h2.5v2.3c-0.2,0.2-0.6,0.4-1.1,0.6c-0.5,0.2-0.9,0.3-1.4,0.3c-0.6,0-1.1-0.1-1.6-0.4
	c-0.4-0.3-0.8-0.6-1-1.1c-0.2-0.5-0.3-1-0.3-1.5c0-0.6,0.1-1.1,0.4-1.6c0.2-0.5,0.6-0.8,1.1-1.1c0.4-0.2,0.8-0.3,1.4-0.3
	c0.7,0,1.3,0.1,1.7,0.4c0.4,0.3,0.7,0.7,0.8,1.2l-1.1,0.2c-0.1-0.3-0.2-0.5-0.5-0.7c-0.2-0.2-0.5-0.2-0.8-0.2
	c-0.5,0-0.9,0.2-1.2,0.5c-0.3,0.3-0.4,0.8-0.4,1.4c0,0.7,0.2,1.2,0.5,1.5c0.3,0.3,0.7,0.5,1.2,0.5c0.2,0,0.5,0,0.7-0.1
	c0.2-0.1,0.5-0.2,0.6-0.3v-0.7H88.6z M94.6,40.7l1.1,0.2c-0.1,0.4-0.4,0.7-0.7,0.9c-0.3,0.2-0.7,0.3-1.1,0.3c-0.7,0-1.3-0.2-1.6-0.7
	C92,41,91.8,40.5,91.8,40c0-0.7,0.2-1.2,0.5-1.6c0.4-0.4,0.8-0.6,1.4-0.6c0.6,0,1.1,0.2,1.5,0.6c0.4,0.4,0.5,1,0.5,1.9H93
	c0,0.3,0.1,0.6,0.3,0.8c0.2,0.2,0.4,0.3,0.6,0.3c0.2,0,0.3,0,0.4-0.1C94.4,41,94.5,40.9,94.6,40.7z M94.6,39.6
	c0-0.3-0.1-0.6-0.2-0.7c-0.2-0.2-0.3-0.2-0.6-0.2c-0.2,0-0.4,0.1-0.6,0.3C93.1,39,93,39.3,93,39.6H94.6z M100.4,42h-1.1v-2.1
	c0-0.4,0-0.7-0.1-0.9c0-0.1-0.1-0.2-0.2-0.3c-0.1-0.1-0.2-0.1-0.4-0.1c-0.2,0-0.4,0.1-0.5,0.2c-0.2,0.1-0.3,0.2-0.3,0.4
	c-0.1,0.2-0.1,0.5-0.1,1V42h-1.1v-4.1h1v0.6c0.4-0.5,0.8-0.7,1.4-0.7c0.2,0,0.5,0,0.7,0.1c0.2,0.1,0.4,0.2,0.5,0.3
	c0.1,0.1,0.2,0.3,0.2,0.5c0,0.2,0.1,0.4,0.1,0.7V42z M103.9,40.7l1.1,0.2c-0.1,0.4-0.4,0.7-0.7,0.9c-0.3,0.2-0.7,0.3-1.1,0.3
	c-0.7,0-1.3-0.2-1.6-0.7c-0.3-0.4-0.4-0.9-0.4-1.4c0-0.7,0.2-1.2,0.5-1.6c0.4-0.4,0.8-0.6,1.4-0.6c0.6,0,1.1,0.2,1.5,0.6
	c0.4,0.4,0.5,1,0.5,1.9h-2.8c0,0.3,0.1,0.6,0.3,0.8c0.2,0.2,0.4,0.3,0.6,0.3c0.2,0,0.3,0,0.4-0.1C103.8,41,103.8,40.9,103.9,40.7z
	 M104,39.6c0-0.3-0.1-0.6-0.2-0.7c-0.2-0.2-0.3-0.2-0.6-0.2c-0.2,0-0.4,0.1-0.6,0.3c-0.2,0.2-0.2,0.4-0.2,0.7H104z M107,42h-1.1
	v-4.1h1v0.6c0.2-0.3,0.3-0.5,0.5-0.6c0.1-0.1,0.3-0.1,0.5-0.1c0.2,0,0.5,0.1,0.7,0.2l-0.3,1c-0.2-0.1-0.4-0.2-0.5-0.2
	c-0.2,0-0.3,0-0.4,0.1c-0.1,0.1-0.2,0.2-0.3,0.5c-0.1,0.2-0.1,0.7-0.1,1.4V42z M109.9,39.1l-1-0.2c0.1-0.4,0.3-0.7,0.6-0.9
	c0.3-0.2,0.7-0.3,1.2-0.3c0.5,0,0.9,0.1,1.1,0.2c0.2,0.1,0.4,0.3,0.5,0.4c0.1,0.2,0.1,0.5,0.1,1l0,1.3c0,0.4,0,0.6,0.1,0.8
	c0,0.2,0.1,0.4,0.2,0.6h-1.1c0-0.1-0.1-0.2-0.1-0.3c0-0.1,0-0.1,0-0.1c-0.2,0.2-0.4,0.3-0.6,0.4c-0.2,0.1-0.4,0.1-0.7,0.1
	c-0.4,0-0.8-0.1-1-0.3c-0.2-0.2-0.4-0.5-0.4-0.9c0-0.2,0.1-0.4,0.2-0.6c0.1-0.2,0.3-0.3,0.5-0.4c0.2-0.1,0.5-0.2,0.9-0.3
	c0.5-0.1,0.9-0.2,1.1-0.3v-0.1c0-0.2-0.1-0.4-0.2-0.4c-0.1-0.1-0.3-0.1-0.6-0.1c-0.2,0-0.3,0-0.5,0.1C110,38.8,110,38.9,109.9,39.1z
	 M111.4,40c-0.1,0-0.4,0.1-0.7,0.2c-0.3,0.1-0.5,0.1-0.6,0.2c-0.1,0.1-0.2,0.2-0.2,0.4c0,0.2,0.1,0.3,0.2,0.4
	c0.1,0.1,0.3,0.2,0.4,0.2c0.2,0,0.4-0.1,0.6-0.2c0.1-0.1,0.2-0.2,0.3-0.4c0-0.1,0-0.3,0-0.5V40z M115.4,37.9v0.9h-0.8v1.7
	c0,0.3,0,0.5,0,0.6c0,0.1,0,0.1,0.1,0.1c0.1,0,0.1,0.1,0.2,0.1c0.1,0,0.2,0,0.4-0.1l0.1,0.9c-0.3,0.1-0.5,0.2-0.9,0.2
	c-0.2,0-0.4,0-0.5-0.1c-0.2-0.1-0.3-0.2-0.4-0.3c-0.1-0.1-0.1-0.2-0.2-0.4c0-0.1,0-0.4,0-0.8v-1.8h-0.5v-0.9h0.5V37l1.1-0.6v1.5
	H115.4z M116.2,37.3v-1h1.1v1H116.2z M116.2,42v-4.1h1.1V42H116.2z M118.2,39.9c0-0.4,0.1-0.7,0.3-1.1c0.2-0.3,0.4-0.6,0.8-0.8
	c0.3-0.2,0.7-0.3,1.1-0.3c0.6,0,1.1,0.2,1.5,0.6c0.4,0.4,0.6,0.9,0.6,1.5c0,0.6-0.2,1.1-0.6,1.6c-0.4,0.4-0.9,0.6-1.5,0.6
	c-0.4,0-0.7-0.1-1.1-0.3c-0.3-0.2-0.6-0.4-0.8-0.8C118.2,40.7,118.2,40.3,118.2,39.9z M119.3,39.9c0,0.4,0.1,0.7,0.3,0.9
	c0.2,0.2,0.4,0.3,0.7,0.3c0.3,0,0.5-0.1,0.7-0.3c0.2-0.2,0.3-0.5,0.3-1c0-0.4-0.1-0.7-0.3-0.9c-0.2-0.2-0.4-0.3-0.7-0.3
	c-0.3,0-0.5,0.1-0.7,0.3C119.4,39.2,119.3,39.5,119.3,39.9z M127.1,42H126v-2.1c0-0.4,0-0.7-0.1-0.9c0-0.1-0.1-0.2-0.2-0.3
	c-0.1-0.1-0.2-0.1-0.4-0.1c-0.2,0-0.4,0.1-0.5,0.2c-0.2,0.1-0.3,0.2-0.3,0.4c-0.1,0.2-0.1,0.5-0.1,1V42h-1.1v-4.1h1v0.6
	c0.4-0.5,0.8-0.7,1.4-0.7c0.2,0,0.5,0,0.7,0.1c0.2,0.1,0.4,0.2,0.5,0.3c0.1,0.1,0.2,0.3,0.2,0.5c0,0.2,0.1,0.4,0.1,0.7V42z
	 M128.2,42v-5.7h4.2v1h-3.1v1.3h2.9v1h-2.9V41h3.2v1H128.2z M133.5,36.3h1.2v3.1c0,0.5,0,0.8,0,1c0,0.2,0.2,0.4,0.4,0.6
	c0.2,0.1,0.4,0.2,0.8,0.2c0.3,0,0.6-0.1,0.7-0.2c0.2-0.1,0.3-0.3,0.3-0.5c0-0.2,0.1-0.5,0.1-1v-3.2h1.2v3c0,0.7,0,1.2-0.1,1.5
	c-0.1,0.3-0.2,0.5-0.3,0.7c-0.2,0.2-0.4,0.4-0.7,0.5c-0.3,0.1-0.6,0.2-1.1,0.2c-0.5,0-1-0.1-1.2-0.2c-0.3-0.1-0.5-0.3-0.7-0.5
	c-0.2-0.2-0.3-0.4-0.3-0.6c-0.1-0.3-0.1-0.8-0.1-1.5V36.3z"/>
</svg>
